<!-- Generated by IcoMoon.io -->
<svg version="1.1" xmlns="http://www.w3.org/2000/svg" width="38" height="32" viewBox="0 0 38 32">
<title>abb-addposition</title>
<path fill="#fff" d="M15.295 16.036v0c1.656 2.185 3.289 4.111 5.018 5.946l-0.033-0.036c0.84 0.926 1.659 1.837 2.393 2.684v0c0.046 0.044 0.109 0.072 0.178 0.072s0.132-0.027 0.178-0.072l-0 0c0.712-0.854 1.545-1.759 2.393-2.692 1.696-1.799 3.328-3.725 4.857-5.735l0.128-0.175c0.512-0.721 0.931-1.555 1.214-2.45l0.017-0.064c0.279-0.828 0.445-1.781 0.456-2.772l0-0.005c0-5.112-4.144-9.257-9.257-9.257s-9.257 4.144-9.257 9.257v0c-0 0.008-0 0.018-0 0.028 0 0.982 0.156 1.928 0.445 2.813l-0.018-0.064c0.325 0.962 0.762 1.797 1.308 2.548l-0.019-0.027zM19.567 7.491c0.837-0.853 2.001-1.382 3.29-1.382 2.544 0 4.607 2.063 4.607 4.607s-2.063 4.607-4.607 4.607c-2.537 0-4.595-2.050-4.607-4.584v-0.001c-0-0.008-0-0.017-0-0.026 0-1.267 0.514-2.413 1.346-3.242l0-0z"></path>
<path fill="#fff" d="M37.369 23.754c-1.168-3.446-6.7-5.198-6.7-5.198l-2.229 2.428s6.117 1.146 5.967 4.080-7.192 4.030-11.557 4.030v0c-4.365 0-11.393-1.118-11.557-4.030s5.967-4.080 5.967-4.080l-2.229-2.414s-5.533 1.737-6.7 5.184 3.304 5.967 4.223 6.359c3.056 1.156 6.589 1.847 10.276 1.894l0.020 0c3.708-0.047 7.24-0.738 10.51-1.964l-0.214 0.070c0.919-0.392 5.39-2.912 4.223-6.359z"></path>
<path fill="#fff" d="M6.985 4.792v-4.792h-2.314v4.792h-4.671v2.193h4.671v5.12h2.314v-5.12h4.671v-2.193h-4.671z"></path>
</svg>
