<!-- Generated by IcoMoon.io -->
<svg version="1.1" xmlns="http://www.w3.org/2000/svg" width="15" height="32" viewBox="0 0 15 32">
<title>abb-closegripper</title>
<path fill="#fff" d="M6.018 9.701c0.002-0.522 0.257-0.984 0.649-1.27l0.004-0.003c0.401-0.293 0.659-0.761 0.659-1.29 0-0 0-0 0-0v0-7.138c-0.079-0.002-0.171-0.004-0.264-0.004-0.712 0-1.405 0.080-2.071 0.232l0.062-0.012c-0.38 0.096-0.687 0.352-0.849 0.691l-0.003 0.008c-2.364 5.24-2.745 13.349-2.745 13.349h4.546z"></path>
<path fill="#fff" d="M8.524 8.428c0.396 0.289 0.651 0.751 0.654 1.273v4.547h4.546s-0.381-8.109-2.745-13.349c-0.165-0.337-0.464-0.586-0.827-0.68l-0.009-0.002c-0.602-0.14-1.294-0.22-2.004-0.22-0.095 0-0.189 0.001-0.283 0.004l0.014-0v7.138c0 0.001 0 0.003 0 0.004 0 0.526 0.255 0.993 0.649 1.282l0.004 0.003z"></path>
<path fill="#fff" d="M0 15.48v11.462c0 2.793 2.264 5.058 5.058 5.058h5.228c2.793 0 5.058-2.264 5.058-5.058v0-11.462z"></path>
</svg>
