<!-- Generated by IcoMoon.io -->
<svg version="1.1" xmlns="http://www.w3.org/2000/svg" width="36" height="32" viewBox="0 0 36 32">
<title>abb-duarov2</title>
<path fill="#4d4d4d" d="M34.207 24.991c0.508-0.241 0.804-0.659 0.924-1.203 0.053-0.236 0.083-0.508 0.083-0.786 0-0.196-0.015-0.388-0.044-0.576l0.003 0.021c-0.136-0.989-0.524-1.89-0.959-2.775-0.193-0.394-0.386-0.783-0.498-1.212-0.269-1.036-0.315-2.093-0.322-3.152-0.010-2.531 0.307-5.041 0.498-7.559 0.022-0.248 0.034-0.537 0.034-0.828 0-1.49-0.32-2.905-0.896-4.181l0.026 0.064c-0.409-0.929-0.931-1.788-1.812-2.359-1.401-0.913-3.091-0.372-3.696 1.181-0.279 0.718-0.363 1.472-0.379 2.232-0.043 2.038 0.334 4.024 0.739 6.007 0.279 1.371 0.697 2.721 0.623 3.965 0 1.578-0.211 2.953-0.427 4.327-0.242 1.532-0.579 3.049-0.649 4.606-0.045 1.022 0.349 1.818 1.273 2.251 1.823 0.866 3.659 0.84 5.48-0.024zM30.21 20.806c-0.052-0.304 0.095-0.544 0.327-0.722 0.468-0.36 1.009-0.444 1.578-0.375 0.366 0.044 0.707 0.159 0.99 0.412 0.21 0.189 0.341 0.423 0.278 0.707s-0.285 0.412-0.548 0.48c-0.248 0.063-0.533 0.098-0.826 0.098-0.079 0-0.157-0.003-0.234-0.008l0.011 0.001c-0.065 0.004-0.141 0.007-0.218 0.007-0.273 0-0.538-0.032-0.793-0.092l0.023 0.005c-0.284-0.066-0.534-0.196-0.588-0.514z"></path>
<path fill="#4d4d4d" d="M7.968 18.933c-0.236-1.415-0.45-2.83-0.551-4.264-0.114-1.64 0.268-3.209 0.608-4.789 0.4-1.852 0.73-3.716 0.751-5.62 0.002-0.074 0.004-0.162 0.004-0.249 0-0.737-0.101-1.45-0.289-2.127l0.013 0.056q-0.569-2.004-2.598-1.903c-0.865 0.042-1.526 0.495-2.032 1.149-1.479 1.911-1.982 4.111-1.83 6.486 0.153 2.392 0.468 4.772 0.494 7.173 0.014 1.222-0.014 2.439-0.322 3.635-0.182 0.713-0.592 1.324-0.867 1.994-0.362 0.888-0.67 1.785-0.618 2.762 0.040 0.757 0.273 1.415 1.015 1.765 1.823 0.857 3.666 0.878 5.481 0.012 0.922-0.44 1.3-1.245 1.255-2.266-0.055-1.287-0.304-2.547-0.516-3.813zM5.731 20.814c-0.057 0.301-0.291 0.432-0.565 0.502-0.239 0.060-0.514 0.095-0.797 0.095-0.076 0-0.151-0.002-0.225-0.007l0.010 0.001c-0.392 0.010-0.745 0-1.085-0.105-0.579-0.181-0.714-0.722-0.272-1.138 0.461-0.434 1.040-0.519 1.645-0.454 0.365 0.039 0.711 0.154 0.995 0.402 0.212 0.185 0.352 0.416 0.294 0.706z"></path>
<path fill="#4d4d4d" d="M27.913 14.058c0-0.003 0-0.006 0-0.010 0-0.911-0.105-1.797-0.302-2.647l0.015 0.079c-0.257-1.139-0.244-1.127-1.395-1.259-1.948-0.222-3.902-0.347-5.861-0.386-1.158-0.023-2.311-0.032-3.466 0.059-0.506 0.040-0.836 0.248-1.044 0.704-0.23 0.478-0.364 1.039-0.364 1.631 0 0.209 0.017 0.415 0.049 0.615l-0.003-0.022c0.080 0.541 0.35 0.913 0.942 1.029 0.567 0.11 1.131 0.23 1.705 0.301 1.874 0.233 3.757 0.283 5.644 0.263 1.264 0.015 2.527-0.015 3.79-0.064 0.219-0.009 0.29-0.068 0.29-0.293z"></path>
<path fill="#4d4d4d" d="M23.361 25.131c-0.182-0.111-0.389-0.179-0.57-0.291-0.713-0.435-1.309-0.942-1.362-1.879s-0.193-1.875-0.242-2.814c-0.028-0.534-0.206-0.937-0.649-1.241-0.14-0.096-0.239-0.141-0.396-0.051-0.191 0.112-0.415 0.192-0.654 0.227l-0.010 0.001c-1.409 0.199-2.817 0.412-4.229 0.579-0.329 0.039-0.399 0.169-0.421 0.45-0.075 0.938-0.198 1.875-0.242 2.814-0.028 0.598-0.289 1.037-0.697 1.425-0.248 0.237-0.515 0.446-0.844 0.57-0.313 0.122-0.581 0.296-0.806 0.515l0.001-0c-0.184 0.172-0.3 0.416-0.3 0.687 0 0.023 0.001 0.047 0.003 0.069l-0-0.003c0.035 0.653 0.334 1.144 0.95 1.405 0.334 0.142 0.679 0.257 1.079 0.408 0.026-0.386 0.257-0.616 0.491-0.859 0.792-0.825 1.263-1.787 1.264-2.959 0-0.823 0.057-1.647 0.090-2.47 0.028-0.687 0.376-1.044 1.064-1.061 0.621-0.016 1.243-0.014 1.865-0.006 0.821 0.010 1.162 0.352 1.193 1.174 0.030 0.781 0.096 1.562 0.084 2.342-0.020 1.233 0.504 2.211 1.332 3.061 0.193 0.197 0.365 0.391 0.397 0.674 0.012 0.098 0.033 0.169 0.156 0.129 0.515-0.17 1.059-0.288 1.515-0.599 0.868-0.593 0.835-1.753-0.059-2.297z"></path>
<path fill="#4d4d4d" d="M19.424 18.447c0.343-0.050 0.791-0.152 0.892-0.487 0.196-0.646 0.206-1.333-0.112-1.971-0.064-0.129-0.154-0.242-0.356-0.185-0.611 0.175-1.243 0.211-1.874 0.218-0.793 0.008-1.585-0.004-2.359-0.207-0.478-0.125-0.585-0.244-0.608-0.718-0.010-0.217-0.134-0.174-0.257-0.165-0.864 0.064-1.728 0.133-2.593 0.188-0.176 0.012-0.242 0.064-0.239 0.248 0 0.004 0 0.008 0 0.012 0 0.3-0.131 0.569-0.339 0.754l-0.001 0.001c-0.27 0.257-0.598 0.405-0.943 0.528-0.679 0.243-1.389 0.345-2.1 0.43-0.153 0.019-0.233 0.042-0.202 0.223q0.179 1.011 0.34 2.025c0.026 0.173 0.1 0.221 0.271 0.217 0.492-0.012 0.985-0.005 1.479-0.005v-0.075c0.534 0 1.076 0.057 1.601-0.010 2.468-0.318 4.936-0.664 7.4-1.019z"></path>
<path fill="#4d4d4d" d="M21.16 27.567c-0.935-0.949-1.537-2.038-1.524-3.419 0.008-0.812-0.057-1.626-0.093-2.438-0.021-0.483-0.219-0.673-0.702-0.679-0.322-0.004-0.643 0-0.965 0-0.3 0-0.599-0.003-0.9 0-0.597 0.007-0.781 0.196-0.798 0.789-0.024 0.813-0.054 1.627-0.085 2.44-0.024 0.658-0.129 1.297-0.45 1.885-0.304 0.558-0.671 1.036-1.101 1.451l-0.002 0.002c-0.129 0.122-0.209 0.264-0.167 0.425 0.037 0.143 0.208 0.117 0.325 0.143 0.425 0.093 0.955 0.175 1.495 0.227l0.061 0.005c1.63 0.179 3.249 0.087 4.862-0.185 0.302-0.051 0.298-0.198 0.217-0.421-0.042-0.089-0.1-0.164-0.172-0.223l-0.001-0.001z"></path>
<path fill="#4d4d4d" d="M8.13 12.447c-0.17 1.286-0.084 2.564 0.064 3.843 0.015 0.129 0.050 0.197 0.193 0.182 0.864-0.091 1.723-0.203 2.512-0.605 0.271-0.138 0.426-0.341 0.397-0.666-0.019-0.213-0.004-0.428-0.004-0.643 0-0.482 0-0.965-0.129-1.435-0.114-0.405-0.339-0.664-0.783-0.74-0.656-0.111-1.318-0.152-1.978-0.221-0.243-0.025-0.25 0.118-0.273 0.286z"></path>
<path fill="#4d4d4d" d="M27.648 14.971c-0.492 0.012-0.984 0.004-1.476 0.004v0.075c-0.493 0-0.985 0-1.479 0-0.123 0-0.228-0.010-0.23 0.174-0.012 0.791-0.064 1.583-0.006 2.373 0.044 0.585 0.243 0.826 0.792 0.988 0.643 0.193 1.31 0.193 1.973 0.207 0.188 0.005 0.163-0.145 0.18-0.246 0.188-1.108 0.353-2.218 0.46-3.337 0.019-0.183-0.026-0.242-0.214-0.238z"></path>
<path fill="#4d4d4d" d="M15.994 15.161c0.328 0.039 0.657 0.088 0.987 0.11 0.855 0.057 1.708 0.038 2.551-0.139 0.077-0.016 0.19-0.008 0.169-0.139-0.018-0.113-0.118-0.064-0.182-0.073-1.275-0.116-2.548-0.241-3.799-0.652 0.004 0.073 0.007 0.159 0.007 0.246 0 0.112-0.004 0.223-0.012 0.333l0.001-0.015c-0.030 0.228 0.087 0.306 0.278 0.329z"></path>
<path fill="#4d4d4d" d="M31.804 21.096c0.322 0.008 0.643 0.015 0.954-0.069 0.37-0.1 0.444-0.36 0.185-0.639-0.486-0.523-1.821-0.518-2.295 0.008-0.246 0.273-0.18 0.523 0.172 0.625 0.322 0.090 0.653 0.080 0.984 0.076z"></path>
<path fill="#4d4d4d" d="M2.993 20.392c-0.248 0.273-0.18 0.524 0.174 0.626 0.313 0.090 0.636 0.084 0.958 0.075 0.333 0.007 0.666 0.018 0.99-0.073 0.355-0.1 0.426-0.352 0.182-0.625-0.473-0.531-1.823-0.533-2.304-0.003z"></path>
<path fill="#4d4d4d" d="M5.965 26.138s-1.019 0.217-2.508 0.080l-0.493 1.029h-1.291l-1.672 2.772h1.695l0.515-1.007h2.531l-0.401 1.007h1.797l0.996-2.771h-1.5z"></path>
<path fill="#4d4d4d" d="M0 30.351h1.648v1.648h-1.648v-1.648z"></path>
<path fill="#4d4d4d" d="M1.946 31.393l0.203-0.277 0.003-1.303-0.206 0.366v1.214z"></path>
<path fill="#4d4d4d" d="M2.485 29.321v1.626h1.385v-0.596l0.446-1.030h-1.832z"></path>
<path fill="#4d4d4d" d="M5.965 30.351h-1.648v1.649h1.648l1.099-2.931v-0.664l-0.733 1.946h-0.367z"></path>
<path fill="#4d4d4d" d="M34.328 27.248h-1.294l-0.492-1.029c-1.488 0.138-2.508-0.080-2.508-0.080l0.333 1.11h-1.499l0.996 2.771h1.798l-0.403-1.008h2.53l0.515 1.007h1.695z"></path>
<path fill="#4d4d4d" d="M34.351 30.351h1.648v1.648h-1.648v-1.648z"></path>
<path fill="#4d4d4d" d="M33.85 31.116l0.203 0.277v-1.214l-0.206-0.366 0.003 1.303z"></path>
<path fill="#4d4d4d" d="M32.13 30.351v0.596h1.385v-1.626h-1.832l0.446 1.030z"></path>
<path fill="#4d4d4d" d="M29.669 30.351l-0.733-1.946v0.664l1.099 2.931h1.648v-1.649h-2.015z"></path>
</svg>
