<!-- Generated by IcoMoon.io -->
<svg version="1.1" xmlns="http://www.w3.org/2000/svg" width="16" height="32" viewBox="0 0 16 32">
<title>abb-opengripper</title>
<path fill="#fff" d="M4.697 9.698c0.003-0.521 0.264-0.982 0.666-1.269l0.005-0.003c0.412-0.292 0.677-0.759 0.677-1.287 0-0.001 0-0.002 0-0.003v0-7.136c-0.081-0.002-0.177-0.004-0.273-0.004-0.732 0-1.445 0.078-2.131 0.227l0.065-0.012c-0.392 0.098-0.707 0.356-0.873 0.696l-0.003 0.008c-2.436 5.242-2.829 13.339-2.829 13.339h4.697z"></path>
<path fill="#fff" d="M10.445 8.425c0.407 0.29 0.668 0.751 0.671 1.272v4.556h4.697s-0.393-8.097-2.829-13.339c-0.173-0.351-0.496-0.61-0.886-0.702l-0.009-0.002c-0.621-0.136-1.333-0.214-2.065-0.214-0.092 0-0.184 0.001-0.276 0.004l0.014-0v7.136c0 0.529 0.268 0.998 0.678 1.287l0.005 0.003z"></path>
<path fill="#fff" d="M0 26.772c0 2.879 2.406 5.212 5.374 5.212 0.002 0 0.004 0 0.006 0h5.053c0.002 0 0.004 0 0.006 0 2.968 0 5.374-2.334 5.374-5.212 0 0 0 0 0 0v0-11.298h-15.813z"></path>
</svg>
