<!-- Generated by IcoMoon.io -->
<svg version="1.1" xmlns="http://www.w3.org/2000/svg" width="31" height="32" viewBox="0 0 31 32">
<title>abb-position</title>
<path fill="#fff" d="M7.502 15.257v0c1.736 2.291 3.448 4.31 5.26 6.233l-0.035-0.037c0.881 0.97 1.739 1.926 2.508 2.814v0c0.048 0.047 0.114 0.075 0.187 0.075s0.138-0.029 0.187-0.075l-0 0c0.746-0.896 1.62-1.844 2.508-2.822 1.778-1.886 3.489-3.905 5.091-6.012l0.134-0.184c0.537-0.756 0.976-1.63 1.273-2.568l0.018-0.067c0.293-0.868 0.467-1.867 0.478-2.906l0-0.005c0-5.359-4.345-9.704-9.704-9.704s-9.704 4.345-9.704 9.704v0c-0 0.009-0 0.019-0 0.029 0 1.029 0.164 2.021 0.467 2.949l-0.019-0.067c0.34 1.008 0.798 1.884 1.371 2.671l-0.020-0.028zM11.98 6.3c0.877-0.894 2.098-1.448 3.449-1.448 2.667 0 4.829 2.162 4.829 4.829s-2.162 4.829-4.829 4.829c-2.659 0-4.817-2.149-4.829-4.806v-0.001c-0-0.008-0-0.018-0-0.027 0-1.328 0.539-2.53 1.411-3.399l0-0z"></path>
<path fill="#fff" d="M30.641 23.349c-1.224-3.613-7.024-5.449-7.024-5.449l-2.336 2.545s6.412 1.202 6.255 4.277-7.539 4.225-12.115 4.225v0c-4.576 0-11.943-1.172-12.115-4.225s6.255-4.277 6.255-4.277l-2.336-2.53s-5.8 1.821-7.024 5.434 3.463 6.255 4.426 6.666c3.204 1.212 6.907 1.936 10.772 1.985l0.021 0c3.887-0.050 7.59-0.773 11.018-2.059l-0.224 0.074c0.963-0.411 5.651-3.053 4.426-6.666z"></path>
</svg>
