<!-- Generated by IcoMoon.io -->
<svg version="1.1" xmlns="http://www.w3.org/2000/svg" width="49" height="32" viewBox="0 0 49 32">
<title>yumi2</title>
<path fill="#707070" d="M13.938 6.57s-0.52-0.323-2.921 0.762c-0.682 0.342-1.486 0.543-2.337 0.543-0.024 0-0.047-0-0.070-0l0.004 0c-0.7-0.051-1.296-0.449-1.624-1.020l-0.005-0.010c-1.52-2.482-0.6-3.998-0.323-4.295 0.032-0.032 0.342-0.29 0.381-0.323 0.994-0.678 3.973-0.29 5.060-0.119 0.223 0.037 0.408 0.17 0.514 0.355l0.002 0.003 0.42 0.733 0.445-0.023c0.357-0.019 0.644-0.293 0.684-0.642l0-0.003c0.064-0.489 0.161-0.926 0.293-1.347l-0.015 0.056c0.044-0.104 0.102-0.194 0.172-0.272l-0.001 0.001c1.233-1.643 3.514-0.865 4.347 0.126 0.745 0.887 2.859 3.808 2.859 3.808 0.117 0.298 0.184 0.643 0.184 1.004 0 0.701-0.255 1.343-0.678 1.837l0.003-0.004c-1.291 1.468-3.843 0.887-3.843 0.887-0.829-1.119-2.087-1.88-3.527-2.038l-0.023-0.002z"></path>
<path fill="#fff" d="M18.288 8.713c0.648-0.499 1.062-1.275 1.062-2.148 0-1.494-1.211-2.704-2.704-2.704s-2.704 1.211-2.704 2.704c0 0.002 0 0.004 0 0.006v-0z"></path>
<path fill="#fff" d="M13.941 6.57c0.003 1.491 1.213 2.699 2.704 2.699 0.621 0 1.193-0.209 1.649-0.561l-0.006 0.005z"></path>
<path fill="#707070" d="M18.504 6.506c0 1.069-0.867 1.936-1.936 1.936s-1.936-0.867-1.936-1.936c0-1.069 0.867-1.936 1.936-1.936s1.936 0.867 1.936 1.936z"></path>
<path fill="#707070" d="M6.041 2.775s-0.41 0.432-0.361 1.672c0.055 1.362 0.478 2.204 1.51 3.317 0 0-0.245-0.055-0.216 0.72s-0.571 1.862-0.571 1.862c0.111 0.097 0.209 0.202 0.296 0.317l0.004 0.005s-1.004-0.019-1.862 1.42c0 0-0.526 0.862-0.381 1.291l-2.459-2.95s-2.204-0.626-2.001-3.008 5.163-4.618 6.041-4.647z"></path>
<path fill="#707070" d="M4.773 13.657c0.123-1.269 1-2.304 2.173-2.66l0.022-0.006s2.23 0.726 3.227 1.633c-1.411 0.791-2.418 2.159-2.706 3.775l-0.005 0.033z"></path>
<path fill="#707070" d="M12.115 15.071c-0.358-0.089-0.619-0.408-0.619-0.787 0-0.108 0.021-0.211 0.060-0.306l-0.002 0.005c-0.297-0.325-0.613-0.62-0.951-0.888l-0.017-0.013c-0.084-0.036-2.236 1.23-2.537 3.456 0 0 1.233 1.885 2.953 1.694 0 0 0.145 2.185 3.647 2.491 0 0 0.868 0.181 1.049-0.361 0 0-0.816-0.781-0.077-2.669 0 0 0.278-0.758 0.823-0.968 0 0-0.11-1.488-1.936-1.739s-2.391 0.084-2.391 0.084z"></path>
<path fill="#fff" d="M3.337 7.958c0 0.624-0.506 1.129-1.13 1.129s-1.129-0.506-1.129-1.13c0-0.624 0.506-1.13 1.129-1.13s1.13 0.506 1.13 1.13z"></path>
<path fill="#707070" d="M21.112 17.901c-0.065-0.234-0.222-0.423-0.428-0.53l-0.005-0.002c-0.822-0.434-1.796-0.688-2.829-0.688-0.079 0-0.157 0.001-0.235 0.004l0.011-0c-1.869 0.11-1.772 2.011-1.778 2.501s0.103 1.359 0.849 1.714 3.059 0.381 3.821 0.136 0.768-2.065 0.736-2.446c-0.032-0.259-0.081-0.492-0.15-0.717l0.008 0.029z"></path>
<path fill="#707070" d="M23.235 20.925l-2.436-0.545-0.058 0.526c1.639 0.645 2.44 0.035 2.495 0.019z"></path>
<path fill="#707070" d="M23.413 18.298l-2.495-0.1 0.081-0.523c1.752-0.21 2.365 0.591 2.414 0.623z"></path>
<path fill="#707070" d="M32.703 26.188v5.809h-16.781v-5.809h16.781z"></path>
<path fill="#707070" d="M34.788 6.57s0.52-0.323 2.921 0.762c0.682 0.342 1.486 0.543 2.337 0.543 0.024 0 0.047-0 0.071-0l-0.004 0c0.7-0.051 1.296-0.449 1.624-1.020l0.005-0.010c1.52-2.482 0.6-3.998 0.323-4.295-0.032-0.032-0.342-0.29-0.381-0.323-0.968-0.681-3.96-0.294-5.050-0.123-0.222 0.037-0.408 0.17-0.514 0.355l-0.002 0.003-0.42 0.733-0.445-0.023c-0.357-0.019-0.644-0.293-0.684-0.642l-0-0.003c-0.064-0.489-0.161-0.926-0.293-1.347l0.015 0.056c-0.047-0.103-0.108-0.192-0.181-0.268l0 0c-1.233-1.643-3.514-0.865-4.347 0.126-0.745 0.887-2.859 3.808-2.859 3.808-0.117 0.298-0.184 0.643-0.184 1.004 0 0.701 0.255 1.343 0.678 1.837l-0.003-0.004c1.291 1.468 3.843 0.887 3.843 0.887 0.829-1.119 2.087-1.88 3.527-2.038l0.023-0.002z"></path>
<path fill="#fff" d="M34.962 6.667c0 1.515-1.228 2.743-2.743 2.743s-2.743-1.228-2.743-2.743c0-1.515 1.228-2.743 2.743-2.743s2.743 1.228 2.743 2.743z"></path>
<path fill="#707070" d="M33.994 6.506c0 1.069-0.867 1.936-1.936 1.936s-1.936-0.867-1.936-1.936c0-1.069 0.867-1.936 1.936-1.936s1.936 0.867 1.936 1.936z"></path>
<path fill="#707070" d="M42.685 2.775s0.41 0.432 0.361 1.672c-0.055 1.362-0.478 2.204-1.51 3.317 0 0 0.245-0.055 0.216 0.72s0.571 1.862 0.571 1.862c-0.111 0.097-0.209 0.202-0.296 0.317l-0.004 0.005s1.007-0.026 1.875 1.413c0 0 0.526 0.862 0.381 1.291l2.446-2.963s2.201-0.626 1.985-3.017-5.144-4.589-6.025-4.618z"></path>
<path fill="#707070" d="M43.953 13.657c-0.123-1.269-1-2.304-2.173-2.66l-0.022-0.006s-2.23 0.726-3.227 1.633c1.411 0.791 2.418 2.159 2.706 3.775l0.005 0.033z"></path>
<path fill="#707070" d="M36.612 15.071c0.358-0.089 0.619-0.408 0.619-0.787 0-0.108-0.021-0.211-0.060-0.306l0.002 0.005c0.297-0.325 0.613-0.62 0.951-0.888l0.017-0.013c0.084-0.036 2.236 1.23 2.537 3.456 0 0-1.233 1.885-2.953 1.694 0 0-0.145 2.185-3.647 2.491 0 0-0.868 0.181-1.049-0.361 0 0 0.816-0.781 0.077-2.669 0 0-0.278-0.758-0.823-0.968 0 0 0.11-1.488 1.936-1.739s2.391 0.084 2.391 0.084z"></path>
<path fill="#fff" d="M47.871 7.958c0 0.624-0.506 1.129-1.13 1.129s-1.13-0.506-1.13-1.13c0-0.624 0.506-1.13 1.13-1.13s1.13 0.506 1.13 1.13z"></path>
<path fill="#707070" d="M27.614 17.901c0.065-0.234 0.222-0.423 0.428-0.53l0.005-0.002c0.822-0.434 1.796-0.688 2.829-0.688 0.079 0 0.157 0.001 0.235 0.004l-0.011-0c1.869 0.11 1.772 2.011 1.778 2.501s-0.103 1.359-0.849 1.714-3.059 0.381-3.821 0.136-0.778-2.065-0.736-2.446c0.032-0.259 0.081-0.492 0.15-0.717l-0.008 0.029z"></path>
<path fill="#707070" d="M25.494 20.925l2.436-0.545 0.058 0.526c-1.639 0.645-2.44 0.035-2.495 0.019z"></path>
<path fill="#707070" d="M25.313 18.298l2.495-0.1-0.081-0.523c-1.752-0.21-2.365 0.591-2.414 0.623z"></path>
<path fill="#707070" d="M29.476 13.399v2.759c-0.77 0.070-1.456 0.384-1.991 0.861l0.003-0.003s-2.098-0.11-2.624 1.184c-0.041 0.071-0.069 0.154-0.077 0.243l-0 0.002h2.211c0.009 0.578 0.056 1.136 0.138 1.683l-0.009-0.069-2.24 0.594c0.288 0.441 0.747 0.749 1.28 0.831l0.010 0.001c0.148 0.023 0.319 0.036 0.494 0.036 0.425 0 0.833-0.078 1.208-0.221l-0.023 0.008c0.45 0.204 0.976 0.324 1.53 0.324 0.029 0 0.059-0 0.088-0.001l-0.004 0v3.937h-10.327v-3.979c0.024 0.001 0.052 0.001 0.080 0.001 0.555 0 1.083-0.119 1.558-0.333l-0.024 0.010c0.351 0.133 0.757 0.211 1.181 0.211 0.175 0 0.348-0.013 0.516-0.039l-0.019 0.002c0.543-0.082 1.002-0.388 1.287-0.819l0.004-0.007-2.24-0.571c0.074-0.478 0.121-1.037 0.129-1.604l0-0.009h2.211c-0.009-0.090-0.036-0.172-0.079-0.245l0.002 0.003c-0.529-1.291-2.624-1.175-2.624-1.175-0.533-0.472-1.219-0.783-1.974-0.851l-0.013-0.001v-2.775l-1.388-3.96c0.349 0.066 0.75 0.103 1.16 0.103 0.324 0 0.642-0.023 0.954-0.069l-0.035 0.004c0.799-0.14 1.502-0.483 2.074-0.973l-0.006 0.005c0.458-0.413 0.645-0.697 0.907-1.523 0.245-0.774-0.068-2.085-0.068-2.085h3.172s-0.323 1.31-0.068 2.085c0.261 0.826 0.449 1.11 0.907 1.523 0.567 0.485 1.269 0.828 2.043 0.964l0.026 0.004c0.276 0.041 0.594 0.065 0.918 0.065 0.41 0 0.811-0.038 1.2-0.11l-0.040 0.006z"></path>
</svg>
